<svg xmlns="http://www.w3.org/2000/svg" width="84" height="84" viewBox="0 0 84 84"><defs><style>.a{fill:#9acd2d;}</style></defs><g transform="translate(72.8 5.631)"><path class="a" d="M426.92,38.307l-4.2-5.6a1.45,1.45,0,0,0-2.24,0l-4.2,5.6a1.4,1.4,0,0,0-.28.84v65.8a5.6,5.6,0,1,0,11.2,0v-65.8A1.4,1.4,0,0,0,426.92,38.307Zm-2.52,66.64a2.8,2.8,0,0,1-5.6,0v-2.8h5.6Zm0-5.6h-5.6v-2.8h5.6Zm0-5.6h-5.6v-50.4h5.6Zm0-53.2h-5.6v-.934l2.8-3.732,2.8,3.732Z" transform="translate(-416 -32.178)"/></g><path class="a" d="M68.606,0H7A1.4,1.4,0,0,0,5.6,1.4V25.34A7.013,7.013,0,0,0,0,32.2V77a7.008,7.008,0,0,0,7,7H57.4a1.407,1.407,0,0,0,.99-.41l11.2-11.2a1.4,1.4,0,0,0,.28-.41c.02-.043.031-.085.046-.13a1.4,1.4,0,0,0,.073-.364c0-.029.017-.056.017-.085V1.4A1.4,1.4,0,0,0,68.606,0ZM42,77a4.2,4.2,0,0,1-4.2,4.2H7A4.2,4.2,0,0,1,2.8,77V32.2A4.2,4.2,0,0,1,7,28H37.8A4.2,4.2,0,0,1,42,32.2ZM23.8,16.8v8.4H14V16.8ZM14,14V8.4h9.8V14Zm22.4,2.8v8.4H26.6V16.8ZM26.6,14V8.4h9.8V14ZM39.2,25.34V16.8H49V36.4H44.8V32.2A7.013,7.013,0,0,0,39.2,25.34ZM39.2,14V8.4H49V14ZM58.8,79.22V72.8h6.42ZM67.2,70H57.4A1.4,1.4,0,0,0,56,71.4v9.8H43.364A6.927,6.927,0,0,0,44.8,77V39.2H63a1.4,1.4,0,0,0,1.4-1.4V7A1.4,1.4,0,0,0,63,5.6H12.6A1.4,1.4,0,0,0,11.2,7V25.2H8.4V2.8H67.2ZM61.6,16.8V36.4H51.8V16.8ZM51.8,14V8.4h9.8V14Z" transform="translate(0 0)"/><g transform="translate(5.6 32.2)"><path class="a" d="M64.2,184H33.4a1.4,1.4,0,0,0-1.4,1.4v8.4a1.4,1.4,0,0,0,1.4,1.4H64.2a1.4,1.4,0,0,0,1.4-1.4v-8.4A1.4,1.4,0,0,0,64.2,184Zm-1.4,8.4h-28v-5.6h28Z" transform="translate(-32 -184)"/></g><g transform="translate(29.4 57.4)"><path class="a" d="M177.8,328h-8.4a1.4,1.4,0,0,0-1.4,1.4v16.8a1.4,1.4,0,0,0,1.4,1.4h8.4a1.4,1.4,0,0,0,1.4-1.4V329.4A1.4,1.4,0,0,0,177.8,328Zm-1.4,16.8h-5.6v-14h5.6Z" transform="translate(-168 -328)"/></g><g transform="translate(29.4 46.2)"><path class="a" d="M177.8,264h-8.4a1.4,1.4,0,0,0-1.4,1.4V271a1.4,1.4,0,0,0,1.4,1.4h8.4a1.4,1.4,0,0,0,1.4-1.4v-5.6A1.4,1.4,0,0,0,177.8,264Zm-1.4,5.6h-5.6v-2.8h5.6Z" transform="translate(-168 -264)"/></g><g transform="translate(16.8 57.4)"><path class="a" d="M105.8,328H97.4a1.4,1.4,0,0,0-1.4,1.4V335a1.4,1.4,0,0,0,1.4,1.4h8.4a1.4,1.4,0,0,0,1.4-1.4v-5.6A1.4,1.4,0,0,0,105.8,328Zm-1.4,5.6H98.8v-2.8h5.6Z" transform="translate(-96 -328)"/></g><g transform="translate(16.8 46.2)"><path class="a" d="M105.8,264H97.4a1.4,1.4,0,0,0-1.4,1.4V271a1.4,1.4,0,0,0,1.4,1.4h8.4a1.4,1.4,0,0,0,1.4-1.4v-5.6A1.4,1.4,0,0,0,105.8,264Zm-1.4,5.6H98.8v-2.8h5.6Z" transform="translate(-96 -264)"/></g><g transform="translate(4.2 57.4)"><path class="a" d="M33.8,328H25.4a1.4,1.4,0,0,0-1.4,1.4V335a1.4,1.4,0,0,0,1.4,1.4h8.4a1.4,1.4,0,0,0,1.4-1.4v-5.6A1.4,1.4,0,0,0,33.8,328Zm-1.4,5.6H26.8v-2.8h5.6Z" transform="translate(-24 -328)"/></g><g transform="translate(4.2 46.2)"><path class="a" d="M33.8,264H25.4a1.4,1.4,0,0,0-1.4,1.4V271a1.4,1.4,0,0,0,1.4,1.4h8.4a1.4,1.4,0,0,0,1.4-1.4v-5.6A1.4,1.4,0,0,0,33.8,264Zm-1.4,5.6H26.8v-2.8h5.6Z" transform="translate(-24 -264)"/></g><g transform="translate(16.8 68.6)"><path class="a" d="M105.8,392H97.4a1.4,1.4,0,0,0-1.4,1.4V399a1.4,1.4,0,0,0,1.4,1.4h8.4a1.4,1.4,0,0,0,1.4-1.4v-5.6A1.4,1.4,0,0,0,105.8,392Zm-1.4,5.6H98.8v-2.8h5.6Z" transform="translate(-96 -392)"/></g><g transform="translate(4.2 68.6)"><path class="a" d="M33.8,392H25.4a1.4,1.4,0,0,0-1.4,1.4V399a1.4,1.4,0,0,0,1.4,1.4h8.4a1.4,1.4,0,0,0,1.4-1.4v-5.6A1.4,1.4,0,0,0,33.8,392Zm-1.4,5.6H26.8v-2.8h5.6Z" transform="translate(-24 -392)"/></g></svg>