<svg xmlns="http://www.w3.org/2000/svg" width="85" height="85" viewBox="0 0 85 85"><defs><style>.a{fill:#9acd2d;}</style></defs><g transform="translate(35.645 10.968)"><path class="a" d="M212.113,72.226a1.371,1.371,0,1,1,1.371-1.371h2.742a4.107,4.107,0,0,0-2.742-3.861V64h-2.742v2.994a4.1,4.1,0,0,0,1.371,7.974,1.371,1.371,0,1,1-1.371,1.371H208a4.107,4.107,0,0,0,2.742,3.861v2.994h2.742V80.2a4.1,4.1,0,0,0-1.371-7.974Z" transform="translate(-208 -64)"/></g><g transform="translate(5.484 5.484)"><path class="a" d="M32,32v8.226h2.742V34.742h5.484V32Z" transform="translate(-32 -32)"/></g><g transform="translate(5.484 27.419)"><path class="a" d="M34.742,165.484V160H32v8.226h8.226v-2.742Z" transform="translate(-32 -160)"/></g><g transform="translate(65.806 5.484)"><path class="a" d="M384,32v2.742h5.484v5.484h2.742V32Z" transform="translate(-384 -32)"/></g><path class="a" d="M79.516,27.558V0H0V41.129H43.871V78.145A6.863,6.863,0,0,0,50.726,85H78.145A6.863,6.863,0,0,0,85,78.145V34.274A6.868,6.868,0,0,0,79.516,27.558ZM43.871,38.387H2.742V2.742H76.774V27.419h-23.6a14.892,14.892,0,0,0,1.662-6.855A15.081,15.081,0,1,0,39.758,35.645a14.86,14.86,0,0,0,4.113-.6Zm.413-6.37a12.2,12.2,0,0,1-4.526.886A12.339,12.339,0,1,1,52.1,20.565,12.194,12.194,0,0,1,49.935,27.5,6.828,6.828,0,0,0,44.284,32.018ZM82.258,78.145a4.118,4.118,0,0,1-4.113,4.113H50.726a4.118,4.118,0,0,1-4.113-4.113V34.274a4.118,4.118,0,0,1,4.113-4.113H78.145a4.118,4.118,0,0,1,4.113,4.113Z"/><g transform="translate(71.29 60.323)"><path class="a" d="M416,352v19.194h8.226V352Zm5.484,16.452h-2.742v-13.71h2.742Z" transform="translate(-416 -352)"/></g><g transform="translate(60.323 71.29)"><path class="a" d="M352,416v8.226h8.226V416Zm5.484,5.484h-2.742v-2.742h2.742Z" transform="translate(-352 -416)"/></g><g transform="translate(49.355 71.29)"><path class="a" d="M288,416v8.226h8.226V416Zm5.484,5.484h-2.742v-2.742h2.742Z" transform="translate(-288 -416)"/></g><g transform="translate(60.323 60.323)"><path class="a" d="M352,352v8.226h8.226V352Zm5.484,5.484h-2.742v-2.742h2.742Z" transform="translate(-352 -352)"/></g><g transform="translate(49.355 60.323)"><path class="a" d="M288,352v8.226h8.226V352Zm5.484,5.484h-2.742v-2.742h2.742Z" transform="translate(-288 -352)"/></g><g transform="translate(60.323 49.355)"><path class="a" d="M352,288v8.226h8.226V288Zm5.484,5.484h-2.742v-2.742h2.742Z" transform="translate(-352 -288)"/></g><g transform="translate(71.29 49.355)"><path class="a" d="M416,288v8.226h8.226V288Zm5.484,5.484h-2.742v-2.742h2.742Z" transform="translate(-416 -288)"/></g><g transform="translate(49.355 49.355)"><path class="a" d="M288,288v8.226h8.226V288Zm5.484,5.484h-2.742v-2.742h2.742Z" transform="translate(-288 -288)"/></g><g transform="translate(49.355 32.903)"><path class="a" d="M288,192v13.71h30.161V192Zm27.419,10.968H290.742v-8.226h24.677Z" transform="translate(-288 -192)"/></g><g transform="translate(2.742 43.871)"><path class="a" d="M47.532,258.742a4.118,4.118,0,0,0-4.113,4.113c0,.055.014.107.016.162l-6.54,2.616a4.046,4.046,0,0,0-5.674-.454l-7.078-4.246a4.113,4.113,0,1,0-4.031,3.293,4.077,4.077,0,0,0,2.6-.953l7.078,4.247a4.113,4.113,0,1,0,8.144.818c0-.055-.014-.107-.016-.162l6.54-2.616a4.106,4.106,0,1,0,3.074-6.819Zm-27.419,2.742a1.371,1.371,0,1,1,1.371-1.371A1.373,1.373,0,0,1,20.113,261.484Zm13.71,8.226a1.371,1.371,0,1,1,1.371-1.371A1.373,1.373,0,0,1,33.823,269.71Zm13.71-5.484a1.371,1.371,0,1,1,1.371-1.371A1.373,1.373,0,0,1,47.532,264.226Z" transform="translate(-16 -256)"/></g><g transform="translate(0 54.839)"><path class="a" d="M38.387,347.419V322.742H30.161v24.677H24.677V328.226H16.452v19.194H10.968V320H2.742v27.419H0v2.742H41.129v-2.742Zm-30.161,0H5.484V322.742H8.226Zm13.71,0H19.194V330.968h2.742Zm13.71,0H32.9V325.484h2.742Z" transform="translate(0 -320)"/></g><g transform="translate(46.613 19.194)"><rect class="a" width="2.742" height="2.742"/></g><g transform="translate(30.161 19.194)"><rect class="a" width="2.742" height="2.742"/></g></svg>