<svg xmlns="http://www.w3.org/2000/svg" width="85.08" height="85.074" viewBox="0 0 85.08 85.074"><defs><style>.a{fill:#9acd2d;}</style></defs><g transform="translate(0 -0.012)"><g transform="translate(0 0.011)"><path class="a" d="M83.662.011H1.422A1.418,1.418,0,0,0,0,1.429V58.146a1.418,1.418,0,0,0,1.418,1.418H2.867A14.148,14.148,0,0,0,18.89,81.431,14.158,14.158,0,1,0,37.822,60.375q-.476-.428-.989-.811h12.8v24.1a1.418,1.418,0,0,0,1.418,1.418H77.99a1.418,1.418,0,0,0,1.418-1.418v-24.1h4.254a1.418,1.418,0,0,0,1.418-1.418V1.429A1.418,1.418,0,0,0,83.662.011ZM3.158,70.769A11.338,11.338,0,0,1,20.848,58.9a14.272,14.272,0,0,0-3.671,3.317,4.236,4.236,0,0,0-1.575-.978V59.564H12.766v1.679a4.244,4.244,0,0,0,1.418,8.247c.024,0,.047.01.071.01-.045.464-.071.933-.071,1.408s.026.944.071,1.407c-.024,0-.047.011-.071.011a1.418,1.418,0,0,1-1.418-1.418H9.93A4.254,4.254,0,0,0,12.766,74.9v1.679h2.61A14.169,14.169,0,0,0,16.809,79.1,11.308,11.308,0,0,1,3.158,70.769Zm12.377-5.862a14,14,0,0,0-.709,1.8,4.123,4.123,0,0,0-.642-.048,1.418,1.418,0,1,1,0-2.836A1.4,1.4,0,0,1,15.535,64.907Zm24.171,6A11.343,11.343,0,1,1,28.363,59.564,11.343,11.343,0,0,1,39.706,70.908ZM76.572,82.251h-24.1V45.385h24.1Zm5.672-25.523H79.408V43.967a1.418,1.418,0,0,0-1.418-1.418H51.05a1.418,1.418,0,0,0-1.418,1.418V56.728H22.668a14.09,14.09,0,0,0-16.956,0H2.84V2.847h79.4Z" transform="translate(0 -0.011)"/></g><g transform="translate(46.796 5.683)"><path class="a" d="M266.858,51.862V46.777l4.254-4.254,7.505,7.505a1.418,1.418,0,0,0,2,0l4.669-4.669,1.833,1.833a1.418,1.418,0,0,0,2,0l7.09-7.09-2-2-6.087,6.087-1.833-1.833a1.418,1.418,0,0,0-2,0l-4.669,4.669-7.505-7.505a1.418,1.418,0,0,0-2,0l-3.251,3.251V32.011h-2.836V53.28A1.418,1.418,0,0,0,265.44,54.7h31.194V51.862Z" transform="translate(-264.022 -32.011)"/></g><g transform="translate(5.676 5.683)"><rect class="a" width="15.597" height="2.836"/></g><g transform="translate(26.945 5.683)"><rect class="a" width="8.508" height="2.836"/></g><g transform="translate(38.288 5.683)"><rect class="a" width="5.672" height="2.836"/></g><g transform="translate(5.676 14.19)"><rect class="a" width="18.433" height="2.836"/></g><g transform="translate(26.945 14.19)"><rect class="a" width="8.508" height="2.836"/></g><g transform="translate(38.288 14.19)"><rect class="a" width="5.672" height="2.836"/></g><g transform="translate(5.676 22.698)"><rect class="a" width="15.597" height="2.836"/></g><g transform="translate(26.945 22.698)"><rect class="a" width="8.508" height="2.836"/></g><g transform="translate(38.288 22.698)"><rect class="a" width="5.672" height="2.836"/></g><g transform="translate(49.632 31.205)"><rect class="a" width="2.836" height="8.508"/></g><g transform="translate(66.647 31.205)"><rect class="a" width="2.836" height="8.508"/></g><g transform="translate(58.139 31.205)"><rect class="a" width="2.836" height="8.508"/></g><g transform="translate(55.303 48.221)"><path class="a" d="M329.037,272.011h-15.6a1.418,1.418,0,0,0-1.418,1.418V279.1a1.418,1.418,0,0,0,1.418,1.418h15.6a1.418,1.418,0,0,0,1.418-1.418v-5.672A1.418,1.418,0,0,0,329.037,272.011Zm-1.418,5.672H314.858v-2.836h12.761Z" transform="translate(-312.022 -272.011)"/></g><g transform="translate(55.303 65.236)"><rect class="a" width="4.254" height="2.836"/></g><g transform="translate(62.393 65.236)"><rect class="a" width="4.254" height="2.836"/></g><g transform="translate(69.483 65.236)"><rect class="a" width="4.254" height="2.836"/></g><g transform="translate(55.303 70.908)"><rect class="a" width="4.254" height="2.836"/></g><g transform="translate(62.393 70.908)"><rect class="a" width="4.254" height="2.836"/></g><g transform="translate(69.483 70.908)"><rect class="a" width="4.254" height="2.836"/></g><g transform="translate(55.303 76.579)"><rect class="a" width="4.254" height="2.836"/></g><g transform="translate(62.393 76.579)"><rect class="a" width="4.254" height="2.836"/></g><g transform="translate(69.483 76.579)"><rect class="a" width="4.254" height="2.836"/></g><g transform="translate(55.303 59.564)"><rect class="a" width="4.254" height="2.836"/></g><g transform="translate(62.393 59.564)"><rect class="a" width="4.254" height="2.836"/></g><g transform="translate(69.483 59.564)"><rect class="a" width="4.254" height="2.836"/></g><g transform="translate(5.676 31.205)"><rect class="a" width="18.433" height="2.836"/></g><g transform="translate(26.945 31.205)"><rect class="a" width="8.508" height="2.836"/></g><g transform="translate(38.288 31.205)"><rect class="a" width="5.672" height="2.836"/></g><g transform="translate(5.676 48.221)"><rect class="a" width="15.597" height="2.836"/></g><g transform="translate(26.945 48.221)"><rect class="a" width="8.508" height="2.836"/></g><g transform="translate(38.288 48.221)"><rect class="a" width="5.672" height="2.836"/></g><g transform="translate(5.676 39.713)"><rect class="a" width="12.761" height="2.836"/></g><g transform="translate(26.945 39.713)"><rect class="a" width="8.508" height="2.836"/></g><g transform="translate(38.288 39.713)"><rect class="a" width="5.672" height="2.836"/></g><g transform="translate(24.109 62.4)"><path class="a" d="M140.276,359.1a1.418,1.418,0,1,1,1.418-1.418h2.836a4.254,4.254,0,0,0-2.836-3.993v-1.679h-2.836v1.679a4.244,4.244,0,0,0,1.418,8.247,1.418,1.418,0,1,1-1.418,1.418h-2.836a4.254,4.254,0,0,0,2.836,3.993v1.679h2.836v-1.679a4.244,4.244,0,0,0-1.418-8.247Z" transform="translate(-136.022 -352.011)"/></g><g transform="translate(75.154 31.205)"><rect class="a" width="2.836" height="8.508"/></g></g></svg>