<svg xmlns="http://www.w3.org/2000/svg" width="85" height="78.129" viewBox="0 0 85 78.129"><g transform="translate(0 -20.703)"><g transform="translate(55.702 20.704)"><path d="M363.127,48.555h-1.135c-1.105-5.609-6.776-15.484-9.286-19.667a4.486,4.486,0,1,0-5.071,0c-2.51,4.183-8.18,14.058-9.286,19.667h-1.135a1.693,1.693,0,0,0-1.693,1.693,14.649,14.649,0,0,0,29.3,0A1.693,1.693,0,0,0,363.127,48.555ZM350.171,24.091a1.1,1.1,0,1,1-1.1,1.1A1.1,1.1,0,0,1,350.171,24.091Zm0,7.155c2.865,4.836,7.29,12.892,8.378,17.31H341.8C342.828,44.42,346.809,36.891,350.168,31.246Zm0,30.265a11.281,11.281,0,0,1-11.136-9.569h22.272A11.281,11.281,0,0,1,350.171,61.511Z" transform="translate(-335.522 -20.704)"/></g><g transform="translate(0 24.814)"><path d="M57.571,109.742H53.095v-4.3a1.693,1.693,0,0,0-1.693-1.693H47.1V56.45A6.407,6.407,0,0,0,49,52.207l7.16-1.541a1.693,1.693,0,1,0-.712-3.311L48.276,48.9a6.423,6.423,0,0,0-12.1,2.6l-17.9,3.853a4.484,4.484,0,1,0-6.158,6.34C9.6,65.879,3.934,75.754,2.828,81.363H1.694A1.693,1.693,0,0,0,0,83.056a14.649,14.649,0,1,0,29.3,0A1.693,1.693,0,0,0,27.6,81.363H26.47c-1.105-5.609-6.776-15.484-9.286-19.667a4.491,4.491,0,0,0,1.9-3.051l17.787-3.827a6.465,6.465,0,0,0,1.2,1.633v47.3h-4.3a1.693,1.693,0,0,0-1.693,1.693v4.3H27.605a1.693,1.693,0,0,0-1.693,1.693v6.345a1.693,1.693,0,0,0,1.693,1.693H57.571a1.693,1.693,0,0,0,1.693-1.693v-6.346A1.693,1.693,0,0,0,57.571,109.742ZM14.649,56.9a1.1,1.1,0,1,1-1.1,1.1A1.1,1.1,0,0,1,14.649,56.9Zm0,37.421A11.28,11.28,0,0,1,3.513,84.749H25.785A11.28,11.28,0,0,1,14.649,94.319Zm8.376-12.956H6.279c1.028-4.136,5.009-11.664,8.368-17.31C17.512,68.889,21.936,76.945,23.025,81.363ZM42.588,48.844a3.039,3.039,0,1,1-3.039,3.039A3.042,3.042,0,0,1,42.588,48.844Zm1.127,9.363v45.542H41.461V58.207a6.338,6.338,0,0,0,2.254,0Zm-8.247,48.928H49.708v2.607H35.468Zm20.41,8.953H29.3v-2.959h26.58Z" transform="translate(0 -45.458)"/></g><g transform="translate(59.403 25.374)"><path d="M362.4,50.17a1.693,1.693,0,0,0-2.012-1.3l-1.234.265a1.693,1.693,0,1,0,.713,3.311l1.234-.265A1.693,1.693,0,0,0,362.4,50.17Z" transform="translate(-357.815 -48.833)"/></g></g></svg>