<svg id="Camera" xmlns="http://www.w3.org/2000/svg" width="64.578" height="64.578" viewBox="0 0 64.578 64.578">
  <rect id="Rectangle_252" data-name="Rectangle 252" width="64.578" height="64.578" fill="none"/>
  <path id="Path_110" data-name="Path 110" d="M32.289,40.361a8.072,8.072,0,1,0-8.072-8.072A8.1,8.1,0,0,0,32.289,40.361Zm0-24.217A16.145,16.145,0,1,1,16.145,32.289,16.192,16.192,0,0,1,32.289,16.145Zm24.217,44.4H8.072A7.969,7.969,0,0,1,2.422,58.12,7.969,7.969,0,0,1,0,52.47V16.145A8.1,8.1,0,0,1,8.072,8.072H14.53l6.054-6.054A6.684,6.684,0,0,1,25.428,0H39.554a6.481,6.481,0,0,1,4.44,2.018l6.054,6.054h6.458a8.1,8.1,0,0,1,8.072,8.072V52.47A8.1,8.1,0,0,1,56.506,60.542Z" transform="translate(0 4.036)" fill="#e6e6e6" fill-rule="evenodd"/>
</svg>
