<svg width="22" height="22" viewBox="0 0 22 22" fill="none" xmlns="http://www.w3.org/2000/svg">
<path d="M14.1809 15.2405L20.2199 21.281C20.2897 21.3507 20.3725 21.406 20.4636 21.4438C20.5547 21.4815 20.6523 21.5009 20.7509 21.5009C20.8496 21.5009 20.9472 21.4815 21.0383 21.4438C21.1294 21.406 21.2122 21.3507 21.2819 21.281C21.3517 21.2112 21.407 21.1285 21.4447 21.0373C21.4825 20.9462 21.5019 20.8486 21.5019 20.75C21.5019 20.6514 21.4825 20.5537 21.4447 20.4626C21.407 20.3715 21.3517 20.2887 21.2819 20.219L1.78195 0.718971C1.71222 0.649239 1.62943 0.593925 1.53832 0.556186C1.44721 0.518447 1.34956 0.499023 1.25095 0.499023C1.15233 0.499023 1.05468 0.518447 0.963572 0.556186C0.872463 0.593925 0.789679 0.649239 0.719947 0.718971C0.650216 0.788703 0.594901 0.871487 0.557162 0.962596C0.519424 1.0537 0.5 1.15136 0.5 1.24997C0.5 1.34859 0.519424 1.44624 0.557162 1.53735C0.594901 1.62846 0.650216 1.71124 0.719947 1.78097L5.56495 6.62597C4.90552 7.0931 4.31217 7.6471 3.80095 8.27297C3.07705 9.16121 2.51038 10.1667 2.12545 11.246C2.09395 11.3375 2.05495 11.4635 2.05495 11.4635L2.02795 11.5565C2.02795 11.5565 1.91395 12.302 2.56045 12.473C2.75259 12.5238 2.95704 12.4962 3.12888 12.3964C3.30072 12.2965 3.42591 12.1325 3.47695 11.9405L3.47845 11.936L3.49045 11.8985L3.54295 11.735C3.86988 10.8238 4.3492 9.97469 4.96045 9.22397C5.44097 8.63336 6.00964 8.12034 6.64645 7.70297L9.01345 10.07C8.53579 10.3694 8.13178 10.7726 7.83146 11.2496C7.53113 11.7267 7.34223 12.2653 7.2788 12.8255C7.21536 13.3856 7.27903 13.9528 7.46507 14.485C7.6511 15.0171 7.95472 15.5005 8.35333 15.8991C8.75194 16.2977 9.23529 16.6013 9.76743 16.7873C10.2996 16.9734 10.8668 17.0371 11.427 16.9736C11.9871 16.9102 12.5257 16.7213 13.0028 16.421C13.4799 16.1206 13.8831 15.7166 14.1824 15.239L14.1809 15.2405ZM8.48095 5.29847L9.76195 6.57947C10.1519 6.52847 10.5644 6.49997 11.0009 6.49997C14.0669 6.49997 15.9299 7.86797 17.0429 9.22547C17.6543 9.9761 18.1336 10.8252 18.4604 11.7365C18.4859 11.8085 18.5024 11.864 18.5129 11.9L18.5249 11.9375V11.942L18.5264 11.9435C18.5819 12.1307 18.7083 12.2888 18.8785 12.3844C19.0488 12.4799 19.2496 12.5053 19.4383 12.4551C19.627 12.4049 19.7887 12.2831 19.889 12.1156C19.9893 11.948 20.0203 11.748 19.9754 11.558V11.5535L19.9739 11.5475L19.9679 11.528C19.942 11.4332 19.9119 11.3396 19.8779 11.2475C19.493 10.1682 18.9263 9.16271 18.2024 8.27447C16.8584 6.63197 14.5949 4.99997 11.0039 4.99997C10.0769 4.99997 9.23845 5.10797 8.48245 5.29847H8.48095Z" fill="#D1D1D1"/>
</svg>
