<svg width="18" height="12" viewBox="0 0 18 12" fill="none" xmlns="http://www.w3.org/2000/svg">
<path d="M1.47583 6.9375V6.942C1.45057 7.03727 1.40677 7.12663 1.34695 7.20496C1.28713 7.2833 1.21246 7.34907 1.1272 7.39853C1.04194 7.44798 0.947773 7.48015 0.850075 7.49318C0.752378 7.50622 0.653069 7.49987 0.557827 7.4745C-0.0886727 7.3035 0.0253273 6.558 0.0253273 6.558L0.0508272 6.465C0.0508272 6.465 0.0898275 6.339 0.121327 6.2475C0.506259 5.16823 1.07293 4.16274 1.79683 3.2745C3.14533 1.6335 5.40883 0 8.99983 0C12.5923 0 14.8558 1.6335 16.2013 3.2745C16.9252 4.16274 17.4919 5.16823 17.8768 6.2475C17.9092 6.34023 17.9392 6.43376 17.9668 6.528L17.9713 6.5475L17.9743 6.5535V6.5565C18.0219 6.7474 17.9926 6.94935 17.8926 7.11882C17.7927 7.28829 17.6302 7.41171 17.4401 7.46248C17.25 7.51324 17.0476 7.48729 16.8765 7.39021C16.7054 7.29313 16.5793 7.1327 16.5253 6.9435L16.5238 6.9375L16.5118 6.9C16.4267 6.63452 16.3265 6.3741 16.2118 6.12C15.906 5.44022 15.5127 4.80333 15.0418 4.2255C13.9273 2.868 12.0658 1.5 8.99983 1.5C5.93383 1.5 4.07083 2.868 2.95783 4.2255C2.3466 4.97623 1.86729 5.8253 1.54033 6.7365C1.5218 6.79066 1.50429 6.84517 1.48783 6.9L1.47583 6.9375Z" fill="#D1D1D1"/>
<path d="M5.25 8.25C5.25 7.25544 5.64509 6.30161 6.34835 5.59835C7.05161 4.89509 8.00544 4.5 9 4.5C9.99456 4.5 10.9484 4.89509 11.6517 5.59835C12.3549 6.30161 12.75 7.25544 12.75 8.25C12.75 9.24456 12.3549 10.1984 11.6517 10.9017C10.9484 11.6049 9.99456 12 9 12C8.00544 12 7.05161 11.6049 6.34835 10.9017C5.64509 10.1984 5.25 9.24456 5.25 8.25Z" fill="#D1D1D1"/>
</svg>
