<svg xmlns="http://www.w3.org/2000/svg" width="20" height="20" viewBox="0 0 20 20">
  <g id="Google_plus" data-name="Google plus" transform="translate(-81 -446)">
    <rect id="Rectangle_121" data-name="Rectangle 121" width="20" height="20" transform="translate(81 446)" fill="none"/>
    <path id="Path_51" data-name="Path 51" d="M20,6.125V8.214H18.125V10.3H16.25V8.075H14.375V6.125H16.25V4.037h1.875V6.125Zm-13.625,0h6c0,.418.125.7.125,1.114,0,4.037-2.375,6.961-6.125,6.961C2.875,14.2,0,11,0,7.1S2.875,0,6.375,0a5.838,5.838,0,0,1,4.25,1.81L8.875,3.759a3.177,3.177,0,0,0-2.5-1.114,4.273,4.273,0,0,0-4,4.455,4.191,4.191,0,0,0,4,4.455A3.526,3.526,0,0,0,10,8.492H6.375Z" transform="translate(81 449)" fill="#9acd2d" fill-rule="evenodd"/>
  </g>
</svg>
