<svg xmlns="http://www.w3.org/2000/svg" width="85" height="84.998" viewBox="0 0 85 84.998"><defs><style>.a{fill:#9acd2d;}</style></defs><g transform="translate(0 0)"><path class="a" d="M83.79,58.257h0v0L78.3,57.47a1.41,1.41,0,0,1-.647-2.526l1.8-1.346h3.763a1.411,1.411,0,0,0,1.41-1.41V1.411A1.411,1.411,0,0,0,83.217,0H1.41A1.411,1.411,0,0,0,0,1.411V52.188A1.411,1.411,0,0,0,1.41,53.6H5.058L3.234,55.422a1.411,1.411,0,0,0-.164,1.8l2.68,3.9-4.636.973A1.41,1.41,0,0,0,0,63.471v5.642a1.411,1.411,0,0,0,1.12,1.381l4.636.975-2.68,3.9a1.411,1.411,0,0,0,.164,1.8l4.231,4.231a1.411,1.411,0,0,0,1.8.164l3.9-2.68.975,4.636a1.41,1.41,0,0,0,1.375,1.114h5.642a1.411,1.411,0,0,0,1.381-1.12l.975-4.638,3.9,2.687a1.411,1.411,0,0,0,1.8-.164l4.231-4.231a1.411,1.411,0,0,0,.164-1.8l-2.68-3.9,4.636-.973a1.41,1.41,0,0,0,1.114-1.381V63.471a1.411,1.411,0,0,0-1.12-1.381l-4.636-.975,2.68-3.9a1.411,1.411,0,0,0-.164-1.8L31.614,53.6h5.821l-1.128,7.849a1.411,1.411,0,0,0,1.193,1.6l.018,0L43,63.831a1.41,1.41,0,0,1,.647,2.526l-4.44,3.32a1.41,1.41,0,0,0-.282,1.975l5.078,6.77a1.41,1.41,0,0,0,1.975.282l4.433-3.326a1.41,1.41,0,0,1,2.243,1.329l-.784,5.485a1.411,1.411,0,0,0,1.2,1.6h0l8.377,1.2a1.362,1.362,0,0,0,.2.016,1.411,1.411,0,0,0,1.4-1.212l.784-5.485a1.41,1.41,0,0,1,2.525-.647l3.324,4.433a1.41,1.41,0,0,0,1.975.282l6.77-5.078a1.41,1.41,0,0,0,.282-1.975l-3.326-4.433a1.41,1.41,0,0,1,1.329-2.243l5.485.783a1.411,1.411,0,0,0,1.6-1.2h0l1.2-8.377A1.411,1.411,0,0,0,83.79,58.257Zm-49.939,6.36v3.351l-3.516.739a2.821,2.821,0,0,0-1.742,4.363L30.607,76l-2.564,2.564-2.93-2.02a2.821,2.821,0,0,0-4.361,1.742l-.74,3.522H16.66l-.74-3.515a2.821,2.821,0,0,0-4.354-1.743L8.629,78.563,6.065,76l2.02-2.93a2.821,2.821,0,0,0-1.742-4.363l-3.522-.739V64.617l3.516-.739a2.821,2.821,0,0,0,1.742-4.355L6.065,56.586l2.564-2.564,2.937,2.014a2.821,2.821,0,0,0,4.361-1.742l.733-3.516h3.351l.74,3.515a2.821,2.821,0,0,0,4.361,1.743l2.93-2.014,2.564,2.564-2.014,2.937a2.821,2.821,0,0,0,1.742,4.363Zm-9.5-11.485-.846.581-.975-4.636a1.411,1.411,0,0,0-1.377-1.12H18.336V38.083h5.642v14.1A1.394,1.394,0,0,0,24.354,53.131ZM31.03,29.621a1.411,1.411,0,0,0-1.41,1.41V50.777H26.8v-14.1a1.411,1.411,0,0,0-1.41-1.41H16.925a1.411,1.411,0,0,0-1.41,1.41V47.956a1.411,1.411,0,0,0-1.381,1.12l-.975,4.638-3.9-2.687a1.382,1.382,0,0,0-.8-.234v-.016H2.821V2.822H81.806V48.9l-4.513-6.018a1.41,1.41,0,0,0-1.975-.282l-4.433,3.326a1.41,1.41,0,0,1-2.243-1.329l.784-5.485a1.393,1.393,0,0,0-.315-1.087V12.7a1.411,1.411,0,0,0-1.41-1.41H59.239a1.411,1.411,0,0,0-1.41,1.41V40.5L57.472,43a1.4,1.4,0,0,1-2.464.705V19.747a1.411,1.411,0,0,0-1.41-1.41H45.135a1.411,1.411,0,0,0-1.41,1.41V43.373l-.846.635a1.41,1.41,0,0,0-.282,1.975l3.326,4.433a1.41,1.41,0,0,1-1.329,2.243l-3.69-.526v-21.1a1.411,1.411,0,0,0-1.41-1.41ZM66.291,14.106V37.237L60.65,36.43V14.106Zm-14.1,7.052V39.965l-.564-.753a1.41,1.41,0,0,0-1.975-.282l-3.1,2.327v-20.1h5.642Zm-14.1,29.62H32.44V32.441h5.642ZM81.194,66.433,77.1,65.85a4.231,4.231,0,0,0-3.983,6.728l2.48,3.306-4.513,3.385-2.478-3.3A4.231,4.231,0,0,0,61.033,77.9l-.584,4.09-5.583-.8.584-4.09a4.231,4.231,0,0,0-6.726-3.983L45.417,75.6l-3.385-4.513,3.3-2.478A4.231,4.231,0,0,0,43.4,61.036l-4.09-.585.8-5.584,4.09.584a4.231,4.231,0,0,0,3.983-6.728l-2.478-3.3,4.513-3.385,2.478,3.3A4.231,4.231,0,0,0,60.266,43.4l.584-4.09,5.584.8L65.85,44.2a4.231,4.231,0,0,0,6.726,3.983l3.306-2.48,3.385,4.513-3.3,2.478A4.231,4.231,0,0,0,77.9,60.266l4.09.585Z" transform="translate(0 -0.001)"/></g><g transform="translate(9.873 57.829)"><path class="a" d="M64.463,328a8.463,8.463,0,1,0,8.463,8.463A8.463,8.463,0,0,0,64.463,328Zm0,14.1a5.642,5.642,0,1,1,5.642-5.642A5.642,5.642,0,0,1,64.463,342.106Z" transform="translate(-56 -328.001)"/></g><g transform="translate(49.366 49.366)"><path class="a" d="M291.284,280a11.284,11.284,0,1,0,11.284,11.284A11.284,11.284,0,0,0,291.284,280Zm0,19.746a8.463,8.463,0,1,1,8.463-8.463A8.463,8.463,0,0,1,291.284,299.747Z" transform="translate(-280 -280.001)"/></g><g transform="translate(14.801 4.26)"><path class="a" d="M125.851,25.571l-7.052-1.41-.564,2.764,3.419.685-37.7,22.1,1.427,2.434,38.189-22.387-.793,3.962,2.764.553,1.41-7.052A1.411,1.411,0,0,0,125.851,25.571Z" transform="translate(-83.952 -24.161)"/></g><g transform="translate(5.642 38.082)"><rect class="a" width="2.821" height="9.873"/></g><g transform="translate(5.642 32.44)"><rect class="a" width="2.821" height="2.821"/></g><g transform="translate(76.165 18.336)"><rect class="a" width="2.821" height="21.157"/></g><g transform="translate(76.165 12.694)"><rect class="a" width="2.821" height="2.821"/></g><g transform="translate(32.44 80.396)"><rect class="a" width="2.821" height="2.821"/></g><g transform="translate(38.082 80.396)"><rect class="a" width="2.821" height="2.821"/></g><g transform="translate(43.724 80.396)"><rect class="a" width="2.821" height="2.821"/></g></svg>