<svg xmlns="http://www.w3.org/2000/svg" width="76.291" height="91.549" viewBox="0 0 76.291 91.549"><defs><style>.a{fill:#101c2a;}</style></defs><g transform="translate(-40)"><g transform="translate(40)"><g transform="translate(0)"><path class="a" d="M108.662,0H53.732a7.63,7.63,0,0,0-7.489,6.244A7.63,7.63,0,0,0,40,13.732V83.92a7.638,7.638,0,0,0,7.629,7.629h54.929a7.63,7.63,0,0,0,7.489-6.244,7.63,7.63,0,0,0,6.244-7.489V7.629A7.638,7.638,0,0,0,108.662,0Zm-1.526,83.92a4.583,4.583,0,0,1-4.577,4.577H47.629a4.583,4.583,0,0,1-4.577-4.577V13.732a4.583,4.583,0,0,1,4.577-4.577H93.4V21.361a1.524,1.524,0,0,0,1.526,1.526h12.207ZM96.455,19.836V11.312l8.523,8.523Zm16.784,57.981a4.571,4.571,0,0,1-3.052,4.3V21.361a1.523,1.523,0,0,0-.449-1.08L96.011,6.553a1.525,1.525,0,0,0-1.082-.45H49.436a4.571,4.571,0,0,1,4.3-3.052h54.929a4.583,4.583,0,0,1,4.577,4.577Z" transform="translate(-40)"/></g></g><g transform="translate(67.465 13.732)"><g transform="translate(0)"><path class="a" d="M191.629,72a7.629,7.629,0,1,0,7.629,7.629A7.638,7.638,0,0,0,191.629,72Zm0,12.207a4.577,4.577,0,1,1,4.577-4.577A4.583,4.583,0,0,1,191.629,84.207Z" transform="translate(-184 -72)"/></g></g><g transform="translate(47.629 33.568)"><g transform="translate(0)"><rect class="a" width="15.258" height="3.052"/></g></g><g transform="translate(67.465 33.568)"><g transform="translate(0)"><rect class="a" width="4.577" height="3.052"/></g></g><g transform="translate(78.145 33.568)"><rect class="a" width="15.258" height="3.052"/></g><g transform="translate(97.981 33.568)"><rect class="a" width="4.577" height="3.052"/></g><g transform="translate(47.629 39.671)"><g transform="translate(0)"><rect class="a" width="15.258" height="3.052"/></g></g><g transform="translate(67.465 39.671)"><g transform="translate(0)"><rect class="a" width="4.577" height="3.052"/></g></g><g transform="translate(78.145 39.671)"><rect class="a" width="15.258" height="3.052"/></g><g transform="translate(97.981 39.671)"><rect class="a" width="4.577" height="3.052"/></g><g transform="translate(47.629 45.775)"><g transform="translate(0)"><rect class="a" width="15.258" height="3.052"/></g></g><g transform="translate(67.465 45.775)"><g transform="translate(0)"><rect class="a" width="4.577" height="3.052"/></g></g><g transform="translate(78.145 45.775)"><rect class="a" width="15.258" height="3.052"/></g><g transform="translate(97.981 45.775)"><rect class="a" width="4.577" height="3.052"/></g><g transform="translate(47.629 51.878)"><g transform="translate(0)"><rect class="a" width="15.258" height="3.052"/></g></g><g transform="translate(67.465 51.878)"><g transform="translate(0)"><rect class="a" width="4.577" height="3.052"/></g></g><g transform="translate(78.145 51.878)"><rect class="a" width="15.258" height="3.052"/></g><g transform="translate(97.981 51.878)"><rect class="a" width="4.577" height="3.052"/></g><g transform="translate(47.629 61.033)"><g transform="translate(0)"><rect class="a" width="15.258" height="3.052"/></g></g><g transform="translate(67.465 61.033)"><g transform="translate(0)"><rect class="a" width="4.577" height="3.052"/></g></g><g transform="translate(78.145 61.033)"><rect class="a" width="15.258" height="3.052"/></g><g transform="translate(97.981 61.033)"><rect class="a" width="4.577" height="3.052"/></g><g transform="translate(47.629 67.136)"><g transform="translate(0)"><rect class="a" width="15.258" height="3.052"/></g></g><g transform="translate(67.465 67.136)"><g transform="translate(0)"><rect class="a" width="4.577" height="3.052"/></g></g><g transform="translate(78.145 67.136)"><rect class="a" width="15.258" height="3.052"/></g><g transform="translate(97.981 67.136)"><rect class="a" width="4.577" height="3.052"/></g><g transform="translate(47.629 73.239)"><g transform="translate(0)"><rect class="a" width="15.258" height="3.052"/></g></g><g transform="translate(67.465 73.239)"><g transform="translate(0)"><rect class="a" width="4.577" height="3.052"/></g></g><g transform="translate(78.145 73.239)"><rect class="a" width="15.258" height="3.052"/></g><g transform="translate(97.981 73.239)"><rect class="a" width="4.577" height="3.052"/></g><g transform="translate(47.629 79.343)"><g transform="translate(0)"><rect class="a" width="15.258" height="3.052"/></g></g><g transform="translate(67.465 79.343)"><g transform="translate(0)"><rect class="a" width="4.577" height="3.052"/></g></g><g transform="translate(78.145 79.343)"><rect class="a" width="15.258" height="3.052"/></g><g transform="translate(97.981 79.343)"><rect class="a" width="4.577" height="3.052"/></g></g></svg>