<svg id="Search" xmlns="http://www.w3.org/2000/svg" width="19.9" height="19.9" viewBox="0 0 19.9 19.9">
  <rect id="Rectangle_693" data-name="Rectangle 693" width="16" height="16" fill="none"/>
  <path id="Path_208" data-name="Path 208" d="M19.9,18.148l-4.13-4.13a8.569,8.569,0,0,0,1.752-5.257A8.707,8.707,0,0,0,8.761,0,8.707,8.707,0,0,0,0,8.761a8.707,8.707,0,0,0,8.761,8.761,8.569,8.569,0,0,0,5.257-1.752l4.13,4.13ZM2.5,8.761A6.2,6.2,0,0,1,8.761,2.5a6.2,6.2,0,0,1,6.258,6.258,6.2,6.2,0,0,1-6.258,6.258A6.2,6.2,0,0,1,2.5,8.761Z" fill="#fff"/>
</svg>
