<svg id="Слой_1" data-name="Слой 1" xmlns="http://www.w3.org/2000/svg" viewBox="0 0 142.01 30.88"><defs><style>.cls-1,.cls-4{fill:#26596c;}.cls-2{fill:#fff;}.cls-3{fill:#7bbe26;}.cls-4{stroke:#fff;stroke-miterlimit:10;stroke-width:0.5px;}</style></defs><title>shem-logo</title><polygon class="cls-1" points="1 29.75 1 1 20.03 1 12.56 8.41 30.26 23.67 22.4 29.75 1 29.75"/><path class="cls-2" d="M87.62-64.19l-5,4.94L81.1-57.73l1.64,1.42,16,13.74-6.63,5.13H72V-64.19H87.62m4.86-2H70v30.75H92.75l9.11-7L84-57.83l8.44-8.36Z" transform="translate(-70.01 66.19)"/><polygon class="cls-3" points="34.56 30.75 28.09 30.75 36.79 23.54 19.4 8.36 27.76 0 34.24 0 25.81 8.36 43.35 23.5 34.56 30.75"/><path class="cls-3" d="M135.17-42.7H132V-53.56H120.15V-42.7H117V-66.19h3.11v10.1H132v-10.1h3.13Z" transform="translate(-70.01 66.19)"/><path class="cls-3" d="M154-53.56H143.81v8.33h11.88v2.53h-15V-66.19h14.82v2.53H143.81v7.57H154Z" transform="translate(-70.01 66.19)"/><path class="cls-3" d="M163.58-66.19,171.29-47,179-66.19h4V-42.7h-3.11v-9.15l.29-9.87-7.75,19h-2.38l-7.73-19,.31,9.82v9.15h-3.11V-66.19Z" transform="translate(-70.01 66.19)"/><path class="cls-3" d="M192.55-66.19,200.27-47,208-66.19h4V-42.7H208.9v-9.15l.29-9.87-7.74,19h-2.38l-7.73-19,.3,9.82v9.15h-3.11V-66.19Z" transform="translate(-70.01 66.19)"/><path class="cls-4" d="M123-37.32a1.8,1.8,0,0,1-.87,1.3,3.54,3.54,0,0,1-1.93.46,3.1,3.1,0,0,1-2.11-.68,2.28,2.28,0,0,1-.79-1.81v-.51a2.42,2.42,0,0,1,.37-1.31,2.42,2.42,0,0,1,1-.86,3.81,3.81,0,0,1,1.56-.3,3.31,3.31,0,0,1,1.89.47,1.84,1.84,0,0,1,.83,1.31h-1a1.41,1.41,0,0,0-.55-.92,2.14,2.14,0,0,0-1.19-.29,2.05,2.05,0,0,0-1.46.5,1.82,1.82,0,0,0-.53,1.42V-38a1.86,1.86,0,0,0,.5,1.38,1.84,1.84,0,0,0,1.41.52,2.35,2.35,0,0,0,1.24-.27,1.36,1.36,0,0,0,.58-.92Z" transform="translate(-70.01 66.19)"/><path class="cls-4" d="M139.89-38.1h-3.21v1.89h3.73v.58h-4.7V-41h4.65v.57h-3.68v1.72h3.21Z" transform="translate(-70.01 66.19)"/><path class="cls-4" d="M158.66-35.63h-1L154-39.74v4.11h-1V-41h1l3.74,4.12V-41h1Z" transform="translate(-70.01 66.19)"/><path class="cls-4" d="M176.7-40.39h-2.38v4.76h-1v-4.76H171V-41h5.72Z" transform="translate(-70.01 66.19)"/><path class="cls-4" d="M193.33-38.1h-3.21v1.89h3.72v.58h-4.7V-41h4.65v.57h-3.67v1.72h3.21Z" transform="translate(-70.01 66.19)"/><path class="cls-4" d="M209.12-37.79h-1.74v2.16h-1V-41h2.45a3.73,3.73,0,0,1,1.92.41,1.31,1.31,0,0,1,.68,1.19,1.2,1.2,0,0,1-.38.87,2.19,2.19,0,0,1-1,.55l1.74,2.26v0h-1.05Zm-1.74-.57h1.5a2.16,2.16,0,0,0,1.16-.27.85.85,0,0,0,.43-.73.86.86,0,0,0-.41-.76,2.34,2.34,0,0,0-1.18-.27h-1.5Z" transform="translate(-70.01 66.19)"/></svg>