<svg xmlns="http://www.w3.org/2000/svg" width="85" height="85" viewBox="0 0 85 85"><path d="M120.5,297.417a1.417,1.417,0,1,0-2.833,0v1.417h-4.25a1.417,1.417,0,1,0,0,2.833h4.25v1.417a1.417,1.417,0,0,0,2.833,0v-1.417h34a1.417,1.417,0,1,0,0-2.833h-34Zm0,0" transform="translate(-92.167 -243.583)"/><path d="M208.672,200.225a1.418,1.418,0,0,0-.672,1.206v11.333a1.416,1.416,0,0,0,2.05,1.275l11.333-5.667a1.416,1.416,0,0,0,0-2.536L210.05,200.17A1.417,1.417,0,0,0,208.672,200.225Zm2.162,3.5,6.749,3.374-6.749,3.374Zm0,0" transform="translate(-171.167 -164.598)"/><path d="M119.083,202.833a1.417,1.417,0,0,0,0-2.833,4.25,4.25,0,0,0-4.25,4.25v1.417h-1.417a1.417,1.417,0,0,0,0,2.833h1.417v4.25a1.417,1.417,0,1,0,2.833,0V208.5h1.417a1.417,1.417,0,0,0,0-2.833h-1.417V204.25A1.417,1.417,0,0,1,119.083,202.833Zm0,0" transform="translate(-92.167 -164.583)"/><path d="M328,232.5a1.417,1.417,0,1,0,2.833,0v-7.083a1.417,1.417,0,1,0-2.833,0Zm0,0" transform="translate(-269.917 -184.333)"/><path d="M330.833,201.417A1.417,1.417,0,1,1,329.417,200,1.417,1.417,0,0,1,330.833,201.417Zm0,0" transform="translate(-269.917 -164.583)"/><path d="M77.667,160h-4.25A1.417,1.417,0,0,0,72,161.417v34a1.417,1.417,0,0,0,1.417,1.417h56.667a1.417,1.417,0,0,0,1.417-1.417V167.083a1.417,1.417,0,1,0-2.833,0V194H74.833V162.833h2.833a1.417,1.417,0,1,0,0-2.833Zm0,0" transform="translate(-59.25 -131.667)"/><path d="M227.333,162.833a1.417,1.417,0,1,0,0-2.833h-9.917a1.417,1.417,0,0,0,0,2.833Zm0,0" transform="translate(-177.75 -131.667)"/><path d="M109.417,165.667A1.417,1.417,0,0,0,108,167.083V198.25a1.417,1.417,0,0,1-1.417,1.417H44.25a1.417,1.417,0,0,1-1.417-1.417V161.417a1.417,1.417,0,1,0-2.833,0V198.25a4.25,4.25,0,0,0,4.25,4.25H64.083v5.667h-8.5a4.25,4.25,0,1,0,0,8.5H95.25a1.417,1.417,0,1,0,0-2.833H55.583a1.417,1.417,0,1,1,0-2.833H95.25a1.417,1.417,0,1,0,0-2.833h-8.5V202.5h19.833a4.25,4.25,0,0,0,4.25-4.25V167.083A1.417,1.417,0,0,0,109.417,165.667Zm-25.5,42.5h-17V202.5h17Zm0,0" transform="translate(-32.917 -131.667)"/><path d="M77.917,0h-17a7.092,7.092,0,0,0-7.083,7.083V22.667H39.406a4.2,4.2,0,0,0,.261-1.417v-17A4.25,4.25,0,0,0,35.417,0H4.25A4.25,4.25,0,0,0,0,4.25v17A4.25,4.25,0,0,0,4.25,25.5H20.663L31.582,36.418a1.417,1.417,0,0,0,2.418-1V25.5H53.975a7.1,7.1,0,0,0,6.942,5.667h17A7.092,7.092,0,0,0,85,24.083v-17A7.092,7.092,0,0,0,77.917,0ZM34,22.667H32.583a1.417,1.417,0,0,0-1.417,1.417V32l-8.915-8.915a1.417,1.417,0,0,0-1-.415h-17A1.417,1.417,0,0,1,2.833,21.25v-17A1.417,1.417,0,0,1,4.25,2.833H35.417A1.417,1.417,0,0,1,36.833,4.25v17a1.417,1.417,0,0,1-1.417,1.417Zm48.167,1.417a4.25,4.25,0,0,1-4.25,4.25h-17a4.25,4.25,0,0,1-4.25-4.25v-17a4.25,4.25,0,0,1,4.25-4.25h17a4.25,4.25,0,0,1,4.25,4.25Zm0,0"/><path d="M364.75,53.667a1.417,1.417,0,0,0-1.417,1.417,4.25,4.25,0,1,1-4.25-4.25,1.417,1.417,0,0,0,0-2.833,7.083,7.083,0,1,0,7.083,7.083A1.417,1.417,0,0,0,364.75,53.667Zm0,0" transform="translate(-289.667 -39.5)"/><path d="M87.583,32H73.417a1.417,1.417,0,0,0,0,2.833H87.583a1.417,1.417,0,0,0,0-2.833Zm0,0" transform="translate(-59.25 -26.333)"/><path d="M41.417,66.833H52.75a1.417,1.417,0,0,0,0-2.833H41.417a1.417,1.417,0,0,0,0,2.833Zm0,0" transform="translate(-32.917 -52.667)"/><path d="M94.167,96H81.417a1.417,1.417,0,1,0,0,2.833h12.75a1.417,1.417,0,1,0,0-2.833Zm0,0" transform="translate(-65.833 -79)"/><path d="M42.833,96H41.417a1.417,1.417,0,1,0,0,2.833h1.417a1.417,1.417,0,1,0,0-2.833Zm0,0" transform="translate(-32.917 -79)"/><path d="M140.25,64h-2.833a1.417,1.417,0,0,0,0,2.833h2.833a1.417,1.417,0,0,0,0-2.833Zm0,0" transform="translate(-111.917 -52.667)"/></svg>