<svg height="480pt" viewBox="0 0 480 480" width="480pt" xmlns="http://www.w3.org/2000/svg"><path d="m160 304c0-4.417969-3.582031-8-8-8s-8 3.582031-8 8v8h-24c-4.417969 0-8 3.582031-8 8s3.582031 8 8 8h24v8c0 4.417969 3.582031 8 8 8s8-3.582031 8-8v-8h192c4.417969 0 8-3.582031 8-8s-3.582031-8-8-8h-192zm0 0"/><path d="m211.792969 201.191406c-2.359375 1.460938-3.792969 4.035156-3.792969 6.808594v64c-.015625 2.78125 1.414062 5.367188 3.773438 6.835938 2.363281 1.46875 5.316406 1.605468 7.800781.363281l64-32c2.71875-1.351563 4.433593-4.125 4.433593-7.160157 0-3.03125-1.714843-5.804687-4.433593-7.160156l-64-32c-2.472657-1.25-5.417969-1.132812-7.78125.3125zm12.207031 19.753906 38.113281 19.054688-38.113281 19.054688zm0 0"/><path d="m152 216c4.417969 0 8-3.582031 8-8s-3.582031-8-8-8c-13.253906 0-24 10.746094-24 24v8h-8c-4.417969 0-8 3.582031-8 8s3.582031 8 8 8h8v24c0 4.417969 3.582031 8 8 8s8-3.582031 8-8v-24h8c4.417969 0 8-3.582031 8-8s-3.582031-8-8-8h-8v-8c0-4.417969 3.582031-8 8-8zm0 0"/><path d="m328 272c0 4.417969 3.582031 8 8 8s8-3.582031 8-8v-40c0-4.417969-3.582031-8-8-8s-8 3.582031-8 8zm0 0"/><path d="m344 208c0 4.417969-3.582031 8-8 8s-8-3.582031-8-8 3.582031-8 8-8 8 3.582031 8 8zm0 0"/><path d="m104 160h-24c-4.417969 0-8 3.582031-8 8v192c0 4.417969 3.582031 8 8 8h320c4.417969 0 8-3.582031 8-8v-160c0-4.417969-3.582031-8-8-8s-8 3.582031-8 8v152h-304v-176h16c4.417969 0 8-3.582031 8-8s-3.582031-8-8-8zm0 0"/><path d="m280 176c4.417969 0 8-3.582031 8-8s-3.582031-8-8-8h-56c-4.417969 0-8 3.582031-8 8s3.582031 8 8 8zm0 0"/><path d="m432 192c-4.417969 0-8 3.582031-8 8v176c0 4.417969-3.582031 8-8 8h-352c-4.417969 0-8-3.582031-8-8v-208c0-4.417969-3.582031-8-8-8s-8 3.582031-8 8v208c0 13.253906 10.746094 24 24 24h112v32h-48c-13.253906 0-24 10.746094-24 24s10.746094 24 24 24h224c4.417969 0 8-3.582031 8-8s-3.582031-8-8-8h-224c-4.417969 0-8-3.582031-8-8s3.582031-8 8-8h224c4.417969 0 8-3.582031 8-8s-3.582031-8-8-8h-48v-32h112c13.253906 0 24-10.746094 24-24v-176c0-4.417969-3.582031-8-8-8zm-144 240h-96v-32h96zm0 0"/><path d="m440 0h-96c-22.082031.0273438-39.972656 17.917969-40 40v88h-81.472656c.949218-2.5625 1.445312-5.269531 1.472656-8v-96c0-13.253906-10.746094-24-24-24h-176c-13.253906 0-24 10.746094-24 24v96c0 13.253906 10.746094 24 24 24h92.6875l61.65625 61.65625c2.289062 2.285156 5.730469 2.972656 8.71875 1.734375s4.9375-4.15625 4.9375-7.390625v-56h112.800781c3.828125 18.613281 20.199219 31.976562 39.199219 32h96c22.082031-.027344 39.972656-17.917969 40-40v-96c-.027344-22.082031-17.917969-39.9726562-40-40zm-248 128h-8c-4.417969 0-8 3.582031-8 8v44.6875l-50.34375-50.34375c-1.5-1.5-3.535156-2.34375-5.65625-2.34375h-96c-4.417969 0-8-3.582031-8-8v-96c0-4.417969 3.582031-8 8-8h176c4.417969 0 8 3.582031 8 8v96c0 4.417969-3.582031 8-8 8zm272 8c0 13.253906-10.746094 24-24 24h-96c-13.253906 0-24-10.746094-24-24v-96c0-13.253906 10.746094-24 24-24h96c13.253906 0 24 10.746094 24 24zm0 0"/><path d="m424 80c-4.417969 0-8 3.582031-8 8 0 13.253906-10.746094 24-24 24s-24-10.746094-24-24 10.746094-24 24-24c4.417969 0 8-3.582031 8-8s-3.582031-8-8-8c-22.089844 0-40 17.910156-40 40s17.910156 40 40 40 40-17.910156 40-40c0-4.417969-3.582031-8-8-8zm0 0"/><path d="m160 32h-80c-4.417969 0-8 3.582031-8 8s3.582031 8 8 8h80c4.417969 0 8-3.582031 8-8s-3.582031-8-8-8zm0 0"/><path d="m48 80h64c4.417969 0 8-3.582031 8-8s-3.582031-8-8-8h-64c-4.417969 0-8 3.582031-8 8s3.582031 8 8 8zm0 0"/><path d="m160 96h-72c-4.417969 0-8 3.582031-8 8s3.582031 8 8 8h72c4.417969 0 8-3.582031 8-8s-3.582031-8-8-8zm0 0"/><path d="m56 96h-8c-4.417969 0-8 3.582031-8 8s3.582031 8 8 8h8c4.417969 0 8-3.582031 8-8s-3.582031-8-8-8zm0 0"/><path d="m160 64h-16c-4.417969 0-8 3.582031-8 8s3.582031 8 8 8h16c4.417969 0 8-3.582031 8-8s-3.582031-8-8-8zm0 0"/></svg>