<svg xmlns="http://www.w3.org/2000/svg" width="20" height="20" viewBox="0 0 20 20">
  <g id="Twitter" transform="translate(-1295 -844)">
    <rect id="Rectangle_1457" data-name="Rectangle 1457" width="20" height="20" transform="translate(1295 844)" fill="none"/>
    <path id="Path_2" data-name="Path 2" d="M44.333,18.222A11.563,11.563,0,0,0,56,6.556V6a9.032,9.032,0,0,0,2-2.111,9.224,9.224,0,0,1-2.333.667,4.323,4.323,0,0,0,1.778-2.222,10.191,10.191,0,0,1-2.556,1,3.968,3.968,0,0,0-3-1.333,4.175,4.175,0,0,0-4.111,4.111A2.166,2.166,0,0,0,47.889,7a11.488,11.488,0,0,1-8.444-4.333,4.255,4.255,0,0,0-.556,2.111,4.415,4.415,0,0,0,1.778,3.444,3.746,3.746,0,0,1-1.889-.556h0a4.061,4.061,0,0,0,3.333,4A3.425,3.425,0,0,1,41,11.778a1.891,1.891,0,0,1-.778-.111,4.209,4.209,0,0,0,3.889,2.889A8.389,8.389,0,0,1,39,16.333a3.076,3.076,0,0,1-1-.111,10.488,10.488,0,0,0,6.333,2" transform="translate(1257 844)" fill="#9acd2d" fill-rule="evenodd"/>
  </g>
</svg>
